G04 MADE WITH FRITZING*
G04 WWW.FRITZING.ORG*
G04 DOUBLE SIDED*
G04 HOLES PLATED*
G04 CONTOUR ON CENTER OF CONTOUR VECTOR*
%ASAXBY*%
%FSLAX23Y23*%
%MOIN*%
%OFA0B0*%
%SFA1.0B1.0*%
%ADD10C,0.078000*%
%ADD11C,0.062992*%
%ADD12C,0.075000*%
%ADD13C,0.039370*%
%ADD14R,0.078000X0.078000*%
%ADD15R,0.062992X0.062992*%
%ADD16R,0.075000X0.075000*%
%ADD17C,0.024000*%
%ADD18C,0.048000*%
%ADD19C,0.032000*%
%LNCOPPER0*%
G90*
G70*
G54D10*
X1013Y1927D03*
X1013Y1827D03*
X1013Y1727D03*
X1013Y1627D03*
X1013Y1527D03*
X1013Y1427D03*
X1013Y1327D03*
X1013Y1227D03*
X1013Y1127D03*
X1013Y1027D03*
X1013Y927D03*
X1013Y827D03*
X1013Y727D03*
X1013Y627D03*
X413Y1927D03*
X413Y1827D03*
X413Y1727D03*
X413Y1627D03*
X413Y1527D03*
X413Y1427D03*
X413Y1327D03*
X413Y1227D03*
X413Y1127D03*
X413Y1027D03*
X413Y927D03*
X413Y827D03*
X413Y727D03*
X413Y627D03*
X113Y1627D03*
X113Y1527D03*
X113Y1427D03*
X113Y1327D03*
X113Y1227D03*
X113Y1127D03*
X113Y1027D03*
X113Y927D03*
X113Y1627D03*
X113Y1527D03*
X113Y1427D03*
X113Y1327D03*
X113Y1227D03*
X113Y1127D03*
X113Y1027D03*
X113Y927D03*
X213Y927D03*
X213Y1027D03*
X213Y1127D03*
X213Y1227D03*
X213Y1327D03*
X213Y1427D03*
X213Y1527D03*
X213Y1627D03*
X213Y277D03*
X313Y277D03*
X413Y277D03*
X513Y277D03*
X613Y277D03*
X713Y277D03*
X813Y277D03*
X913Y277D03*
X213Y277D03*
X313Y277D03*
X413Y277D03*
X513Y277D03*
X613Y277D03*
X713Y277D03*
X813Y277D03*
X913Y277D03*
X913Y377D03*
X813Y377D03*
X713Y377D03*
X613Y377D03*
X513Y377D03*
X413Y377D03*
X313Y377D03*
X213Y377D03*
X113Y127D03*
X213Y127D03*
X313Y127D03*
X413Y127D03*
X513Y127D03*
X613Y127D03*
X713Y127D03*
X813Y127D03*
X913Y127D03*
X2313Y478D03*
X2213Y478D03*
X2113Y478D03*
X2113Y1628D03*
X2213Y1628D03*
X2313Y1628D03*
G54D11*
X1711Y178D03*
X1613Y178D03*
X1614Y1929D03*
X1713Y1929D03*
G54D12*
X1713Y1129D03*
X1713Y729D03*
X1213Y1228D03*
X1613Y1228D03*
G54D13*
X713Y1527D03*
X613Y1427D03*
G54D10*
X2213Y78D03*
X2213Y2028D03*
X563Y1727D03*
X663Y1727D03*
X763Y1727D03*
X863Y1727D03*
G54D13*
X563Y1927D03*
G54D10*
X213Y1727D03*
X213Y1827D03*
X1413Y478D03*
X1313Y478D03*
X1213Y478D03*
X1213Y1628D03*
X1313Y1628D03*
X1413Y1628D03*
G54D14*
X2313Y478D03*
X2113Y1628D03*
G54D15*
X1711Y178D03*
X1614Y1929D03*
G54D16*
X1713Y1129D03*
X1213Y1228D03*
G54D17*
X732Y1527D02*
X983Y1527D01*
D02*
X632Y1427D02*
X983Y1427D01*
G54D18*
D02*
X113Y1586D02*
X113Y1569D01*
D02*
X113Y1486D02*
X113Y1469D01*
D02*
X113Y1386D02*
X113Y1369D01*
D02*
X113Y1286D02*
X113Y1269D01*
D02*
X113Y1186D02*
X113Y1169D01*
D02*
X113Y1086D02*
X113Y1069D01*
D02*
X113Y986D02*
X113Y969D01*
D02*
X213Y528D02*
X114Y476D01*
D02*
X114Y476D02*
X113Y169D01*
D02*
X114Y779D02*
X213Y726D01*
D02*
X213Y726D02*
X213Y528D01*
D02*
X114Y886D02*
X114Y779D01*
G54D17*
D02*
X213Y157D02*
X213Y247D01*
D02*
X313Y157D02*
X313Y247D01*
D02*
X413Y157D02*
X413Y247D01*
D02*
X513Y157D02*
X513Y247D01*
D02*
X613Y157D02*
X613Y247D01*
D02*
X713Y157D02*
X713Y247D01*
D02*
X813Y157D02*
X813Y247D01*
G54D18*
D02*
X665Y2027D02*
X513Y2027D01*
D02*
X513Y2027D02*
X442Y1956D01*
D02*
X663Y1768D02*
X665Y2027D01*
G54D19*
D02*
X563Y1763D02*
X563Y1902D01*
G54D18*
D02*
X1864Y277D02*
X1612Y278D01*
D02*
X2213Y278D02*
X1864Y277D01*
D02*
X1612Y278D02*
X1613Y216D01*
D02*
X2313Y378D02*
X2213Y278D01*
D02*
X2313Y437D02*
X2313Y378D01*
G54D17*
D02*
X913Y247D02*
X913Y157D01*
D02*
X512Y1328D02*
X513Y407D01*
D02*
X912Y1328D02*
X512Y1328D01*
D02*
X983Y1327D02*
X912Y1328D01*
D02*
X863Y1677D02*
X863Y1697D01*
D02*
X813Y1627D02*
X863Y1677D01*
D02*
X513Y1627D02*
X813Y1627D01*
D02*
X463Y1727D02*
X513Y1627D01*
D02*
X443Y1727D02*
X463Y1727D01*
G54D18*
D02*
X2013Y1629D02*
X2072Y1628D01*
D02*
X1739Y1902D02*
X2013Y1629D01*
D02*
X2113Y779D02*
X2313Y578D01*
D02*
X2313Y578D02*
X2313Y519D01*
D02*
X2113Y1587D02*
X2113Y779D01*
D02*
X114Y1827D02*
X114Y1669D01*
D02*
X172Y1827D02*
X114Y1827D01*
D02*
X312Y1928D02*
X372Y1928D01*
D02*
X242Y1857D02*
X312Y1928D01*
G54D17*
D02*
X1613Y1257D02*
X1614Y1902D01*
G54D18*
D02*
X1563Y276D02*
X1438Y445D01*
D02*
X1612Y216D02*
X1611Y278D01*
D02*
X1611Y278D02*
X1563Y276D01*
G54D19*
D02*
X1313Y576D02*
X1313Y514D01*
D02*
X2112Y514D02*
X2111Y576D01*
D02*
X2111Y576D02*
X1313Y576D01*
G54D17*
D02*
X1212Y729D02*
X1043Y727D01*
D02*
X1213Y508D02*
X1212Y729D01*
G54D18*
D02*
X1712Y2028D02*
X1712Y1967D01*
D02*
X1213Y1669D02*
X1215Y2028D01*
D02*
X1215Y2028D02*
X1712Y2028D01*
D02*
X663Y1768D02*
X665Y2028D01*
D02*
X665Y2028D02*
X1212Y2028D01*
D02*
X1212Y2028D02*
X1213Y1669D01*
G54D17*
D02*
X1414Y1076D02*
X1213Y828D01*
D02*
X1213Y828D02*
X1043Y827D01*
D02*
X1413Y1598D02*
X1414Y1076D01*
G54D18*
D02*
X1213Y1826D02*
X1043Y1827D01*
D02*
X1213Y2030D02*
X1213Y1826D01*
D02*
X1713Y2030D02*
X1213Y2030D01*
D02*
X1713Y1956D02*
X1713Y2030D01*
G04 End of Copper0*
M02*