G04 MADE WITH FRITZING*
G04 WWW.FRITZING.ORG*
G04 DOUBLE SIDED*
G04 HOLES PLATED*
G04 CONTOUR ON CENTER OF CONTOUR VECTOR*
%ASAXBY*%
%FSLAX23Y23*%
%MOIN*%
%OFA0B0*%
%SFA1.0B1.0*%
%ADD10C,0.078000*%
%ADD11C,0.062992*%
%ADD12C,0.075000*%
%ADD13C,0.039370*%
%ADD14R,0.078000X0.078000*%
%ADD15R,0.062992X0.062992*%
%ADD16R,0.075000X0.075000*%
%ADD17C,0.024000*%
%ADD18C,0.032000*%
%LNCOPPER1*%
G90*
G70*
G54D10*
X1013Y1927D03*
X1013Y1827D03*
X1013Y1727D03*
X1013Y1627D03*
X1013Y1527D03*
X1013Y1427D03*
X1013Y1327D03*
X1013Y1227D03*
X1013Y1127D03*
X1013Y1027D03*
X1013Y927D03*
X1013Y827D03*
X1013Y727D03*
X1013Y627D03*
X413Y1927D03*
X413Y1827D03*
X413Y1727D03*
X413Y1627D03*
X413Y1527D03*
X413Y1427D03*
X413Y1327D03*
X413Y1227D03*
X413Y1127D03*
X413Y1027D03*
X413Y927D03*
X413Y827D03*
X413Y727D03*
X413Y627D03*
X113Y1627D03*
X113Y1527D03*
X113Y1427D03*
X113Y1327D03*
X113Y1227D03*
X113Y1127D03*
X113Y1027D03*
X113Y927D03*
X113Y1627D03*
X113Y1527D03*
X113Y1427D03*
X113Y1327D03*
X113Y1227D03*
X113Y1127D03*
X113Y1027D03*
X113Y927D03*
X213Y927D03*
X213Y1027D03*
X213Y1127D03*
X213Y1227D03*
X213Y1327D03*
X213Y1427D03*
X213Y1527D03*
X213Y1627D03*
X213Y277D03*
X313Y277D03*
X413Y277D03*
X513Y277D03*
X613Y277D03*
X713Y277D03*
X813Y277D03*
X913Y277D03*
X213Y277D03*
X313Y277D03*
X413Y277D03*
X513Y277D03*
X613Y277D03*
X713Y277D03*
X813Y277D03*
X913Y277D03*
X913Y377D03*
X813Y377D03*
X713Y377D03*
X613Y377D03*
X513Y377D03*
X413Y377D03*
X313Y377D03*
X213Y377D03*
X113Y127D03*
X213Y127D03*
X313Y127D03*
X413Y127D03*
X513Y127D03*
X613Y127D03*
X713Y127D03*
X813Y127D03*
X913Y127D03*
X2313Y478D03*
X2213Y478D03*
X2113Y478D03*
X2113Y1628D03*
X2213Y1628D03*
X2313Y1628D03*
G54D11*
X1711Y178D03*
X1613Y178D03*
X1614Y1929D03*
X1713Y1929D03*
G54D12*
X1713Y1129D03*
X1713Y729D03*
X1213Y1228D03*
X1613Y1228D03*
G54D13*
X713Y1527D03*
X613Y1427D03*
G54D10*
X2213Y78D03*
X2213Y2028D03*
X563Y1727D03*
X663Y1727D03*
X763Y1727D03*
X863Y1727D03*
G54D13*
X563Y1927D03*
G54D10*
X213Y1727D03*
X213Y1827D03*
X1413Y478D03*
X1313Y478D03*
X1213Y478D03*
X1213Y1628D03*
X1313Y1628D03*
X1413Y1628D03*
G54D14*
X2313Y478D03*
X2113Y1628D03*
G54D15*
X1711Y178D03*
X1614Y1929D03*
G54D16*
X1713Y1129D03*
X1213Y1228D03*
G54D17*
X244Y1627D02*
X383Y1627D01*
D02*
X244Y1527D02*
X383Y1527D01*
D02*
X244Y1427D02*
X383Y1427D01*
D02*
X244Y1327D02*
X383Y1327D01*
D02*
X244Y1227D02*
X383Y1227D01*
D02*
X244Y1127D02*
X383Y1127D01*
D02*
X244Y1027D02*
X383Y1027D01*
D02*
X244Y927D02*
X383Y927D01*
G54D18*
D02*
X1013Y1927D02*
X588Y1927D01*
G54D17*
D02*
X1713Y279D02*
X1712Y205D01*
D02*
X1713Y700D02*
X1713Y279D01*
D02*
X1684Y1129D02*
X1043Y1127D01*
D02*
X1813Y927D02*
X1043Y927D01*
D02*
X2014Y378D02*
X1813Y927D01*
D02*
X2212Y378D02*
X2014Y378D01*
D02*
X2213Y448D02*
X2212Y378D01*
D02*
X713Y407D02*
X713Y1508D01*
D02*
X613Y407D02*
X613Y1408D01*
D02*
X983Y1627D02*
X813Y1627D01*
D02*
X813Y1627D02*
X813Y407D01*
D02*
X763Y1757D02*
X763Y1827D01*
D02*
X763Y1827D02*
X443Y1827D01*
D02*
X2212Y1479D02*
X1813Y1028D01*
D02*
X1813Y1028D02*
X1043Y1027D01*
D02*
X2213Y1598D02*
X2212Y1479D01*
D02*
X313Y727D02*
X383Y727D01*
D02*
X313Y407D02*
X313Y727D01*
D02*
X413Y407D02*
X413Y597D01*
D02*
X213Y407D02*
X213Y827D01*
D02*
X213Y827D02*
X383Y827D01*
D02*
X935Y399D02*
X1014Y476D01*
D02*
X1014Y476D02*
X1013Y597D01*
G54D18*
D02*
X1111Y1729D02*
X1111Y2028D01*
D02*
X1111Y2028D02*
X1063Y2028D01*
D02*
X1063Y2028D02*
X313Y2028D01*
D02*
X313Y1728D02*
X249Y1728D01*
D02*
X313Y2028D02*
X313Y1728D01*
D02*
X1049Y1728D02*
X1111Y1729D01*
D02*
X1111Y1729D02*
X1563Y1729D01*
D02*
X1563Y1729D02*
X1713Y1728D01*
D02*
X1049Y1728D02*
X1111Y1729D01*
D02*
X1713Y1728D02*
X2313Y1729D01*
D02*
X2313Y1729D02*
X2313Y1664D01*
D02*
X2111Y1177D02*
X2113Y514D01*
D02*
X2313Y1427D02*
X2111Y1177D01*
D02*
X2313Y1592D02*
X2313Y1427D01*
D02*
X1111Y1729D02*
X1313Y1729D01*
D02*
X1313Y1729D02*
X1313Y1664D01*
D02*
X1049Y1728D02*
X1111Y1729D01*
G54D17*
D02*
X1184Y1228D02*
X1043Y1227D01*
G04 End of Copper1*
M02*