G04 MADE WITH FRITZING*
G04 WWW.FRITZING.ORG*
G04 DOUBLE SIDED*
G04 HOLES PLATED*
G04 CONTOUR ON CENTER OF CONTOUR VECTOR*
%ASAXBY*%
%FSLAX23Y23*%
%MOIN*%
%OFA0B0*%
%SFA1.0B1.0*%
%ADD10C,0.088000*%
%ADD11C,0.072992*%
%ADD12C,0.085000*%
%ADD13C,0.049370*%
%ADD14C,0.135984*%
%ADD15R,0.088000X0.088000*%
%ADD16R,0.072992X0.072992*%
%ADD17R,0.085000X0.085000*%
%LNMASK1*%
G90*
G70*
G54D10*
X1013Y1927D03*
X1013Y1827D03*
X1013Y1727D03*
X1013Y1627D03*
X1013Y1527D03*
X1013Y1427D03*
X1013Y1327D03*
X1013Y1227D03*
X1013Y1127D03*
X1013Y1027D03*
X1013Y927D03*
X1013Y827D03*
X1013Y727D03*
X1013Y627D03*
X413Y1927D03*
X413Y1827D03*
X413Y1727D03*
X413Y1627D03*
X413Y1527D03*
X413Y1427D03*
X413Y1327D03*
X413Y1227D03*
X413Y1127D03*
X413Y1027D03*
X413Y927D03*
X413Y827D03*
X413Y727D03*
X413Y627D03*
X113Y1627D03*
X113Y1527D03*
X113Y1427D03*
X113Y1327D03*
X113Y1227D03*
X113Y1127D03*
X113Y1027D03*
X113Y927D03*
X113Y1627D03*
X113Y1527D03*
X113Y1427D03*
X113Y1327D03*
X113Y1227D03*
X113Y1127D03*
X113Y1027D03*
X113Y927D03*
X213Y927D03*
X213Y1027D03*
X213Y1127D03*
X213Y1227D03*
X213Y1327D03*
X213Y1427D03*
X213Y1527D03*
X213Y1627D03*
X213Y277D03*
X313Y277D03*
X413Y277D03*
X513Y277D03*
X613Y277D03*
X713Y277D03*
X813Y277D03*
X913Y277D03*
X213Y277D03*
X313Y277D03*
X413Y277D03*
X513Y277D03*
X613Y277D03*
X713Y277D03*
X813Y277D03*
X913Y277D03*
X913Y377D03*
X813Y377D03*
X713Y377D03*
X613Y377D03*
X513Y377D03*
X413Y377D03*
X313Y377D03*
X213Y377D03*
X113Y127D03*
X213Y127D03*
X313Y127D03*
X413Y127D03*
X513Y127D03*
X613Y127D03*
X713Y127D03*
X813Y127D03*
X913Y127D03*
X2313Y478D03*
X2213Y478D03*
X2113Y478D03*
X2113Y1628D03*
X2213Y1628D03*
X2313Y1628D03*
G54D11*
X1711Y178D03*
X1613Y178D03*
X1614Y1929D03*
X1713Y1929D03*
G54D12*
X1713Y1129D03*
X1713Y729D03*
X1213Y1228D03*
X1613Y1228D03*
G54D13*
X713Y1527D03*
X613Y1427D03*
G54D14*
X2313Y1229D03*
X2313Y829D03*
X113Y1977D03*
X113Y627D03*
G54D10*
X2213Y78D03*
X2213Y2028D03*
X563Y1727D03*
X663Y1727D03*
X763Y1727D03*
X863Y1727D03*
G54D13*
X563Y1927D03*
G54D10*
X213Y1727D03*
X213Y1827D03*
X1413Y478D03*
X1313Y478D03*
X1213Y478D03*
X1213Y1628D03*
X1313Y1628D03*
X1413Y1628D03*
G54D15*
X2313Y478D03*
X2113Y1628D03*
G54D16*
X1711Y178D03*
X1614Y1929D03*
G54D17*
X1713Y1129D03*
X1213Y1228D03*
G04 End of Mask1*
M02*