M48
INCH
T10C0.038000
T11C0.031497
T12C0.035000
T13C0.015748
T14C0.125984
%
T10
X014129Y016280
X013129Y016280
X012129Y016280
X012129Y004780
X013129Y004780
X014129Y004780
X002133Y018273
X002133Y017273
X008629Y017269
X007629Y017269
X006629Y017269
X005629Y017269
X022129Y020279
X022129Y000780
X023129Y016279
X022129Y016279
X021129Y016279
X021129Y004780
X022129Y004780
X023129Y004780
X009133Y001273
X008133Y001273
X007133Y001273
X006133Y001273
X005133Y001273
X004133Y001273
X003133Y001273
X002133Y001273
X001133Y001273
X002133Y003773
X003133Y003773
X004133Y003773
X005133Y003773
X006133Y003773
X007133Y003773
X008133Y003773
X009133Y003773
X009133Y002773
X008133Y002773
X007133Y002773
X006133Y002773
X005133Y002773
X004133Y002773
X003133Y002773
X002133Y002773
X002133Y016273
X002133Y015273
X002133Y014273
X002133Y013273
X002133Y012273
X002133Y011273
X002133Y010273
X002133Y009273
X001133Y009273
X001133Y010273
X001133Y011273
X001133Y012273
X001133Y013273
X001133Y014273
X001133Y015273
X001133Y016273
X004129Y006269
X004129Y007269
X004129Y008269
X004129Y009269
X004129Y010269
X004129Y011269
X004129Y012269
X004129Y013269
X004129Y014269
X004129Y015269
X004129Y016269
X004129Y017269
X004129Y018269
X004129Y019269
X010129Y006269
X010129Y007269
X010129Y008269
X010129Y009269
X010129Y010269
X010129Y011269
X010129Y012269
X010129Y013269
X010129Y014269
X010129Y015269
X010129Y016269
X010129Y017269
X010129Y018269
X010129Y019269
T11
X017125Y019286
X016141Y019286
X016129Y001780
X017114Y001780
T12
X016129Y012280
X012129Y012280
X017125Y007286
X017125Y011286
T13
X005629Y019269
X006129Y014269
X007129Y015269
T14
X001133Y006273
X001133Y019773
X023125Y008286
X023125Y012286
T00
M30
